# xmcd CD database file
# Copyright (C) 1993-1998 Ti Kan
#
# Track frame offsets:
#	200
#	13005
#	31440
#	44750
#
# Disc length: 861 seconds
#
# Revision: 1
# Processed by: cddbd v1.4b41PL1 Copyright (c) Steve Scherf et al.
# Submitted via: NotifyCDPlayer(CDDB) 1.51.3
#
DISCID=2f035b04
DTITLE=Gary Moore - Too Tired
DYEAR=1900
DGENRE=
TTITLE0=Too Tired
TTITLE1=All Your Love (live)
TTITLE2=The Stumble
TTITLE3=Too Tired (live at Hammersmith Odeon)
EXTD=
EXTT0=
EXTT1=
EXTT2=
EXTT3=
PLAYORDER=
